<?xml version="1.0" encoding="UTF-8"?>
<svg id="Layer_1" data-name="Layer 1" xmlns="http://www.w3.org/2000/svg" viewBox="0 0 1138.21 770.5">
  <defs>
    <style>
      .cls-1 {
        stroke: #231f20;
      }

      .cls-1, .cls-2 {
        stroke-miterlimit: 10;
      }

      .cls-1, .cls-3 {
        fill: #231f20;
      }

      .cls-2 {
        fill: none;
        stroke: #1f1f1f;
        stroke-width: .22px;
      }

      .cls-3, .cls-4 {
        stroke-width: 0px;
      }

      .cls-4 {
        fill: #fff;
      }
    </style>
  </defs>
  <rect class="cls-3" x="569.45" width="477.66" height="468.88"/>
  <path class="cls-4" d="M906.66,384.78c-11.8-18.53-21.1-26.22-30.76-43.36-5.44-10.13-2.6-18,7.39-20.52,5.04-1.27,8.06.13,14.76,6.83,13.04,13.14,32.38,46.5,44.7,49.56,24.3,11.94,51.09-46.93,58.49-67.8,21.21-51.79-50.08-36.25-74.26-49.09-.96-.87-5.74-5.09-6.49-9.38-2.37-13.6,1.4-14.51,40.21-9.68,48.15,14.91,53.33-13.91,40.77-58.58-18.12-50.08-20.94-66.48-63.32-33.67-26.06,20.26-33.74,22.72-40.2,12.82-5.7-10.27,9.7-23.09,16.82-28.34,14.9-11.21,39.96-23.59,31.63-42.56-8.05-22.67-62.07-49.5-78.86-53.75-6.18-1.14-9.4-.22-14.05,4.05-5.13,4.7-6.63,9.91-10.05,34.76-2.21,16.08-4.71,31.04-5.56,33.25-2.07,5.42-11.02,8.55-16.4,5.73-5.2-2.74-5.57-13.17-1.63-45.42,3.29-26.94,1.67-38.04-5.91-40.49-36.36-1.88-46.79,3.95-77.23,9.04-26.73,10.03-30.83,21.42-15.13,41.94,30.36,39.67,31.54,42.18,24.53,52.2-7.63,10.93-12.88,7.55-36-23.13-27.86-36.95-32.21-38.1-53.97-14.12-8.15,8.82-14.36,20.28-19.92,26.5-6.44,13.89-19.99,27.43-20.52,43.99,0,5.68,1.54,7.93,6.84,10.04,3.77,1.49,8.72,3.66,11.01,4.84,2.29,1.17,13.65,3.31,25.23,4.75,22.67,2.82,36.65,6.73,39.57,11.07,1.01,1.48,1.85,6.32,1.86,10.75.05,10.31-7.07,12.5-26.85,8.22-7.78-1.69-18.43-2.9-23.68-2.69-11.22-1.17-28.53-6.23-38.17,4.08-5.41,7.41-.78,48.42,8.56,75.85,4.21,13.74,14.4,26.12,21.91,33.24,12.51,4.26,31.52-14.73,39.96-20.77,13.6-9.77,26.87-17.46,30.15-17.46,4.08,1.55,7.95,6.65,10.26,11.61,2.91,6.41,2.1,7.48-27.07,35.56-11.06,14.83-34.66,19.72-26.34,36.39,16.73,42.68,96.31,74.3,100.93,40.42,1.44-8.16,3.55-16.22,3.89-23.29,3.36-11.25,5.88-34.05,8.68-43.61,2.95-8.96,10.79-5.31,19.65-2.99,4.48,1.18,4.79,2.9,3.6,20.35-.7,10.48-1.7,26.35-2.2,35.26-.5,8.91-1.7,16.75-2.66,21.54,1.33,44.99,151.92,10.57,105.81-34.01Z"/>
  <path class="cls-1" d="M673.43,579.57c-.29,15.07,2.49,22.84,7.96,45.98,8.92,37.73,13.37,56.59,13.26,69.98-.31,37.52-16.61,51.92-3.98,63.67,11.44,10.65,38.71,11.74,51.73,2.62,14.75-10.34,10.62-33.39,3.98-69.5-3.66-19.88-8.57-31.39-5.31-33.15,2.99-1.61,10.25,6.08,13.7,9.73,0,0,6.04,6.39,11.73,17.3.76,1.46,1.39,2.87,1.39,2.87,1.04,2.38,1.68,4.2,1.82,4.62,1.52,4.46,8.47,21.1,9.1,22.63,5.73,13.73,10.06,24.1,19.16,34.22,4.56,5.07,10.02,11.13,19.16,15.06,14.47,6.22,36.24,6.26,40.34-2.37,6.58-13.85-29.92-65.83-30.2-67.11-.04-.2-.18-.83-.39-1.73-2.59-10.92-7.14-23.02-8.49-22.74-2.63.56,4.6,48.72,4.22,48.77-.33.04.46-36.93-20.53-60.22-6.37-7.07-13.69-13.69-13.69-13.69-16.38-14.81-23.29-15.96-23.46-20.97-.34-10.37,29.06-9.89,41.25-30.37,9.49-15.94,4.77-37.4-4.11-51.15-15.41-23.87-44.98-27.02-53.59-27.46-1.9-.1-3.24-.07-4.78-.08-8.96-.02-37.63-.09-55.7,16.52-13.94,12.81-14.25,28.8-14.59,46.57Z"/>
  <path class="cls-1" d="M814.51,758.19c-17.86-15.68-2.73-61.91,4.38-106.79,14.73-92.96,15.08-123.81,26.29-125.63,18.34-2.98,35.96,76.4,54.78,72.87,16.98-3.19,12.79-69.72,28.49-72.87,19.05-3.82,46.08,90.01,55.35,124.24.81,3,1.45,5.39,2.71,10.18,14.81,56.42,22.09,84.82,15.38,94.11-12.02,16.66-50.95,15.54-61.88-.38-3.34-4.87-3.16-12.78-2.67-28.41.72-22.77,3.61-28.49,4.11-43.33.59-17.47-2.23-47.4-12.58-50.38-9.84-2.83-18.97,24.83-34.38,23.36-14.28-1.36-20.4-25.8-25.59-24.18-4.91,1.53-1.16,24.39.4,55.59,3.2,64.25-7.45,73.72-11.81,76.64-8.98,6-21.77,4.63-22.35,4.56,0,0-11.22-1.34-20.62-9.59Z"/>
  <path class="cls-4" d="M757.79,596.8c-2.29-3.04-4.09-4.31-5.96-7.12-1.05-1.66-.5-2.96,1.43-3.37.98-.21,1.56.02,2.86,1.12,2.53,2.16,6.28,7.64,8.66,8.14,4.71,1.96,9.9-7.71,11.34-11.14,4.11-8.51-9.71-5.95-14.39-8.06-.19-.14-1.11-.84-1.26-1.54-.46-2.23.27-2.38,7.79-1.59,9.33,2.45,10.34-2.29,7.9-9.62-3.51-8.23-4.06-10.92-12.27-5.53-5.05,3.33-6.54,3.73-7.79,2.11-1.1-1.69,1.88-3.79,3.26-4.66,2.89-1.84,7.74-3.87,6.13-6.99-1.56-3.72-12.03-8.13-15.29-8.83-1.2-.19-1.82-.04-2.72.67-.99.77-1.29,1.63-1.95,5.71-.43,2.64-.91,5.1-1.08,5.46-.4.89-2.14,1.4-3.18.94-1.01-.45-1.08-2.16-.32-7.46.64-4.42.32-6.25-1.15-6.65-7.05-.31-9.07.65-14.97,1.48-5.18,1.65-5.98,3.52-2.93,6.89,5.88,6.52,6.11,6.93,4.75,8.57-1.48,1.79-2.5,1.24-6.98-3.8-5.4-6.07-6.24-6.26-10.46-2.32-1.58,1.45-2.78,3.33-3.86,4.35-1.25,2.28-3.87,4.51-3.98,7.23,0,.93.3,1.3,1.33,1.65.73.25,1.69.6,2.13.8.44.19,2.65.54,4.89.78,4.39.46,7.1,1.1,7.67,1.82.2.24.36,1.04.36,1.77.01,1.69-1.37,2.05-5.2,1.35-1.51-.28-3.57-.48-4.59-.44-2.17-.19-5.53-1.02-7.4.67-1.05,1.22-.15,7.95,1.66,12.46.82,2.26,2.79,4.29,4.25,5.46,2.42.7,6.11-2.42,7.74-3.41,2.64-1.6,5.21-2.87,5.84-2.87.79.25,1.54,1.09,1.99,1.91.56,1.05.41,1.23-5.25,5.84-2.14,2.44-6.72,3.24-5.11,5.98,3.24,7.01,18.67,12.2,19.56,6.64.28-1.34.69-2.66.75-3.82.65-1.85,1.14-5.59,1.68-7.16.57-1.47,2.09-.87,3.81-.49.87.19.93.48.7,3.34-.14,1.72-.33,4.33-.43,5.79-.1,1.46-.33,2.75-.51,3.54.26,7.39,29.45,1.74,20.51-5.59Z"/>
  <path class="cls-2" d="M12.06,313.21c-.47-.74-.85-1.05-1.24-1.74-.22-.41-.1-.72.3-.82.2-.05.32,0,.59.27.52.53,1.3,1.87,1.8,1.99.98.48,2.05-1.89,2.35-2.73.85-2.08-2.01-1.46-2.98-1.97-.04-.04-.23-.2-.26-.38-.1-.55.06-.58,1.62-.39,1.94.6,2.14-.56,1.64-2.35-.73-2.01-.84-2.67-2.55-1.35-1.05.81-1.36.91-1.62.52-.23-.41.39-.93.68-1.14.6-.45,1.61-.95,1.27-1.71-.32-.91-2.49-1.99-3.17-2.16-.25-.05-.38,0-.56.16-.21.19-.27.4-.4,1.4-.09.65-.19,1.25-.22,1.34-.08.22-.44.34-.66.23-.21-.11-.22-.53-.07-1.83.13-1.08.07-1.53-.24-1.63-1.46-.08-1.88.16-3.1.36-1.07.4-1.24.86-.61,1.69,1.22,1.59,1.27,1.7.99,2.1-.31.44-.52.3-1.45-.93-1.12-1.49-1.29-1.53-2.17-.57-.33.35-.58.81-.8,1.07-.26.56-.8,1.1-.82,1.77,0,.23.06.32.27.4.15.06.35.15.44.19.09.05.55.13,1.01.19.91.11,1.47.27,1.59.44.04.06.07.25.07.43,0,.41-.28.5-1.08.33-.31-.07-.74-.12-.95-.11-.45-.05-1.15-.25-1.53.16-.22.3-.03,1.95.34,3.05.17.55.58,1.05.88,1.34.5.17,1.27-.59,1.61-.83.55-.39,1.08-.7,1.21-.7.16.06.32.27.41.47.12.26.08.3-1.09,1.43-.44.6-1.39.79-1.06,1.46.67,1.72,3.87,2.99,4.06,1.62.06-.33.14-.65.16-.94.13-.45.24-1.37.35-1.75.12-.36.43-.21.79-.12.18.05.19.12.14.82-.03.42-.07,1.06-.09,1.42-.02.36-.07.67-.11.87.05,1.81,6.11.42,4.25-1.37Z"/>
</svg>